<svg xmlns="http://www.w3.org/2000/svg" width="288" height="288" viewBox="0 0 288 288">
    <g fill="none" fill-rule="evenodd">
        <g fill-rule="nonzero">
            <g>
                <path fill="#666C72" d="M163 143.91c0-8.58-1.251-16.804-3.753-24.491-1.609-5.363-3.932-10.726-6.792-15.732-.357-.536-.536-1.072-.894-1.43-9.472-15.91-24.128-28.246-41.643-34.86L162.82 3.575l-.357.358c.179-.179.357-.179.357-.358L160.498 0l-50.223 26.458C97.943 32.536 85.432 38.972 73.28 45.765c-12.333 6.972-24.486 14.48-36.104 23.956-5.719 4.826-11.438 10.01-16.621 16.268-5.183 6.257-9.83 13.229-13.405 21.452-1.608 4.112-3.217 8.403-4.29 12.872l-.714 3.396-.536 3.397c-.18.894-.358 1.788-.358 2.682C.357 134.436 0 139.263 0 144.089c0 35.218 22.162 65.073 53.261 76.514L.536 284.425h0L2.86 288l49.865-26.458c12.332-6.078 24.843-12.514 36.996-19.307 12.333-6.972 24.486-14.48 36.104-23.956 5.719-4.826 11.438-10.01 16.621-16.268 5.183-6.257 9.83-13.229 13.405-21.452 1.608-4.112 3.217-8.403 4.29-12.872l.714-3.396.536-3.397c.358-2.324.537-4.29.715-6.436l.18-1.609v-.357c.535-2.682.714-5.542.714-8.581z" transform="translate(62)"/>
                <path fill="#FFF" d="M76.853 123.173L67.023 123.173 67.023 120.849 80.785 103.687 92.939 103.687 92.939 183.598 77.032 183.598 77.032 123.173z" transform="translate(62)"/>
            </g>
        </g>
    </g>
</svg>
