<svg xmlns="http://www.w3.org/2000/svg" width="288" height="288" viewBox="0 0 288 288">
    <g fill="none" fill-rule="evenodd">
        <g fill-rule="nonzero">
            <g>
                <path fill="#666C72" d="M.715 152.492v.357l.179 1.61c.178 2.144.357 4.11.715 6.435l.536 3.397.715 3.396c1.072 4.47 2.68 8.76 4.29 12.872 3.574 8.223 8.22 15.195 13.404 21.452 5.183 6.257 10.902 11.442 16.621 16.268 11.618 9.475 23.771 16.984 36.104 23.956 12.153 6.793 24.664 13.229 36.996 19.307L160.14 288l2.324-3.575h-.179.179l-52.725-63.822C140.838 209.162 163 179.307 163 144.09c0-4.826-.357-9.653-1.251-14.301 0-.894-.179-1.788-.358-2.682l-.536-3.397-.715-3.396c-1.072-4.47-2.68-8.76-4.29-12.872-3.574-8.223-8.22-15.195-13.404-21.452-5.183-6.257-10.902-11.442-16.621-16.268-11.618-9.475-23.771-16.984-36.104-23.956-12.153-6.793-24.664-13.229-36.996-19.307L2.502 0 .18 3.575c0 .18.178.18.357.358L.18 3.575l52.903 63.822c-17.515 6.614-32.17 18.95-41.643 34.86-.358.358-.537.894-.894 1.43-2.86 5.006-5.183 10.369-6.792 15.732C1.251 127.106 0 135.329 0 143.911c0 3.039.179 5.9.715 8.58z" transform="translate(63)"/>
                <path fill="#FFF" d="M91.33 159.464v-1.252c0-6.614-3.038-11.262-10.187-11.262-5.541 0-8.937 3.039-9.652 6.435l-14.834-5.005v-44.514h47.184v1.073l-3.575 13.765H72.742v16.983c3.396-2.145 7.328-3.039 11.618-3.039 13.94 0 23.056 9.117 23.056 24.134v3.933c0 15.017-10.724 24.67-27.167 24.67-12.511 0-22.877-6.257-25.737-18.95l15.013-4.647c1.43 6.078 6.077 8.938 10.903 8.938 7.506 0 10.902-4.827 10.902-11.262z" transform="translate(63)"/>
            </g>
        </g>
    </g>
</svg>
