<svg xmlns="http://www.w3.org/2000/svg" width="288" height="288" viewBox="0 0 288 288">
    <g fill="none" fill-rule="evenodd">
        <g fill-rule="nonzero">
            <g>
                <path fill="#666C72" d="M.715 152.492v.357l.179 1.61c.178 2.144.357 4.11.715 6.435l.536 3.397.715 3.396c1.072 4.47 2.68 8.76 4.29 12.872 3.574 8.223 8.22 15.195 13.404 21.452 5.183 6.257 10.902 11.442 16.621 16.268 11.618 9.475 23.771 16.984 36.104 23.956 12.153 6.793 24.664 13.229 36.996 19.307L160.14 288l2.324-3.575h-.179.179l-52.725-63.822C140.838 209.162 163 179.307 163 144.09c0-4.826-.357-9.653-1.251-14.301 0-.894-.179-1.788-.358-2.682l-.536-3.397-.715-3.396c-1.072-4.47-2.68-8.76-4.29-12.872-3.574-8.223-8.22-15.195-13.404-21.452-5.183-6.257-10.902-11.442-16.621-16.268-11.618-9.475-23.771-16.984-36.104-23.956-12.153-6.793-24.664-13.229-36.996-19.307L2.502 0 .18 3.575c0 .18.178.18.357.358L.18 3.575l52.903 63.822c-17.515 6.614-32.17 18.95-41.643 34.86-.358.358-.537.894-.894 1.43-2.86 5.006-5.183 10.369-6.792 15.732C1.251 127.106 0 135.329 0 143.911c0 3.039.179 5.9.715 8.58z" transform="translate(63)"/>
                <path fill="#FFF" d="M57.908 174.48c0-8.044 3.396-15.016 8.936-20.38l16.8-15.553c3.933-3.575 5.899-8.76 5.899-12.692 0-4.648-2.681-8.402-8.758-8.402-4.29 0-7.685 3.039-9.294 9.296l-15.37-3.576c2.86-13.05 12.51-21.095 24.843-21.095 15.192 0 24.664 8.76 24.664 23.598 0 8.76-4.11 16.626-10.723 22.525l-11.796 10.726c-4.29 3.933-6.792 6.436-6.792 9.833h29.847v1.072l-3.574 13.766H57.908v-9.118z" transform="translate(63)"/>
            </g>
        </g>
    </g>
</svg>
