<svg xmlns:xlink="http://www.w3.org/1999/xlink" xmlns="http://www.w3.org/2000/svg" class="storm-icon" viewBox="0 0 288 288" width="48" height="48"><g fill="none" fill-rule="evenodd"><g fill-rule="nonzero" fill="none"><g fill="none"><path fill="#666C72" d="M163 143.91c0-8.58-1.251-16.804-3.753-24.491-1.609-5.363-3.932-10.726-6.792-15.732-.357-.536-.536-1.072-.894-1.43-9.472-15.91-24.128-28.246-41.643-34.86L162.82 3.575l-.357.358c.179-.179.357-.179.357-.358L160.498 0l-50.223 26.458C97.943 32.536 85.432 38.972 73.28 45.765c-12.333 6.972-24.486 14.48-36.104 23.956-5.719 4.826-11.438 10.01-16.621 16.268-5.183 6.257-9.83 13.229-13.405 21.452-1.608 4.112-3.217 8.403-4.29 12.872l-.714 3.396-.536 3.397c-.18.894-.358 1.788-.358 2.682C.357 134.436 0 139.263 0 144.089c0 35.218 22.162 65.073 53.261 76.514L.536 284.425h0L2.86 288l49.865-26.458c12.332-6.078 24.843-12.514 36.996-19.307 12.333-6.972 24.486-14.48 36.104-23.956 5.719-4.826 11.438-10.01 16.621-16.268 5.183-6.257 9.83-13.229 13.405-21.452 1.608-4.112 3.217-8.403 4.29-12.872l.714-3.396.536-3.397c.358-2.324.537-4.29.715-6.436l.18-1.609v-.357c.535-2.682.714-5.542.714-8.581z" transform="translate(62)"></path><path fill="#FFFFFF" d="M86.147 170.19H51.83v-7.508l34.852-58.816h15.37v51.486h10.724v1.073l-3.574 13.765h-7.15v13.587H86.148V170.19zm0-14.838V129.43L71.67 155.173h14.477v.179z" transform="translate(62)"></path></g></g></g></svg>